<svg width="90" height="71" viewBox="0 0 90 71" fill="none" xmlns="http://www.w3.org/2000/svg">
<path d="M73.3454 23.0084C72.4035 22.7231 71.4615 22.4537 70.5195 22.2002C70.6765 21.6138 70.816 21.0275 70.9556 20.4411C73.1012 10.9961 71.6882 3.4052 66.926 0.901318C62.3383 -1.49163 54.8548 0.996402 47.2841 6.98671C46.534 7.57306 45.8014 8.19111 45.1036 8.80916C44.6326 8.39712 44.1442 7.98509 43.6558 7.58891C35.7188 1.18657 27.7643 -1.50748 23.0021 1.01225C18.4318 3.42105 17.0712 10.5682 18.99 19.5061C19.1819 20.3936 19.3912 21.2652 19.6354 22.1526C18.519 22.4379 17.42 22.7548 16.3908 23.0876C7.07576 26.0194 0.394714 30.6468 0.394714 35.4327C0.394714 40.3771 7.51186 45.3373 17.1933 48.3483C17.9782 48.5861 18.7632 48.8238 19.5656 49.0298C19.304 49.9806 19.0772 50.9156 18.8679 51.8823C17.0363 60.6776 18.4667 67.6504 23.037 70.0434C27.7469 72.5156 35.6664 69.98 43.3767 63.8471C43.9872 63.3558 44.5977 62.8487 45.2083 62.3099C45.9758 62.9913 46.7782 63.641 47.5807 64.2749C55.0467 70.1068 62.4255 72.468 66.9784 70.0751C71.6882 67.6029 73.2233 60.1071 71.2347 50.979C71.0777 50.2817 70.9033 49.5686 70.7114 48.8396C71.2696 48.697 71.8103 48.5385 72.3511 48.38C82.4163 45.3532 89.7079 40.4563 89.7079 35.4327C89.7079 30.631 82.8349 25.9719 73.3454 23.0084ZM49.7437 9.55398C56.2329 4.41943 62.2859 2.40682 65.0421 3.84893C67.9901 5.38612 69.124 11.5983 67.2749 19.7597C67.1528 20.2985 67.0307 20.8215 66.8737 21.3444C63.0011 20.5521 59.0762 19.9816 55.1339 19.6646C52.8662 16.717 50.3892 13.8962 47.7028 11.2497C48.3831 10.6633 49.046 10.1086 49.7437 9.55398ZM29.561 43.6575C30.4507 45.0362 31.3578 46.415 32.3172 47.762C29.5959 47.4926 26.8921 47.0964 24.2232 46.5734C24.9907 44.2914 25.9501 41.9302 27.0666 39.5214C27.869 40.9159 28.6888 42.2946 29.561 43.6575ZM24.2755 24.5931C26.7874 24.086 29.4564 23.674 32.23 23.357C31.3054 24.6724 30.3984 26.0194 29.5436 27.3823C28.6888 28.7293 27.8515 30.108 27.0666 31.5026C25.9676 29.1413 25.0431 26.8276 24.2755 24.5931ZM29.0552 35.512C30.2065 33.325 31.4624 31.1856 32.7882 29.0779C34.1139 26.9702 35.5443 24.9259 37.0445 22.9133C39.6611 22.739 42.33 22.6439 45.0513 22.6439C47.7726 22.6439 50.4589 22.739 53.0581 22.9133C54.5408 24.9101 55.9538 26.9544 57.297 29.0462C58.6402 31.1381 59.8961 33.2775 61.0823 35.4486C59.9136 37.6355 58.6576 39.7908 57.3144 41.9143C55.9887 44.022 54.5757 46.0663 53.093 48.0948C50.4938 48.2691 47.79 48.3483 45.0513 48.3483C42.3126 48.3483 39.6611 48.2691 37.0968 48.1265C35.5792 46.1139 34.1488 44.0537 32.8056 41.946C31.4624 39.8383 30.2239 37.6989 29.0552 35.512ZM60.559 43.6258C61.4486 42.2313 62.2859 40.8208 63.1058 39.3946C64.2222 41.6924 65.1991 44.022 66.0538 46.415C63.35 46.9696 60.6113 47.3975 57.8552 47.6827C58.7971 46.3516 59.6868 44.9887 60.559 43.6258ZM63.0709 31.5026C62.251 30.108 61.4137 28.7134 60.5415 27.3506C59.6868 26.0035 58.7971 24.6724 57.8726 23.357C60.6811 23.674 63.3675 24.1019 65.8794 24.6248C65.077 26.9702 64.135 29.2523 63.0709 31.5026ZM45.0862 13.6743C46.9178 15.4809 48.6447 17.3826 50.2496 19.3477C46.7957 19.205 43.3243 19.205 39.8704 19.3477C41.5799 17.3033 43.3418 15.4017 45.0862 13.6743ZM24.8512 3.95986C27.7818 2.40682 34.2884 4.62545 41.1438 10.1403C41.5799 10.489 42.016 10.8693 42.4696 11.2497C39.7658 13.8962 37.2713 16.717 34.9861 19.6646C31.0438 19.9816 27.1363 20.5362 23.2638 21.3127C23.037 20.5045 22.8451 19.6805 22.6532 18.8564C21.0135 11.1863 22.095 5.40197 24.8512 3.95986ZM20.5774 45.7335C19.8447 45.5434 19.1295 45.3373 18.4143 45.1155C14.6988 44.0537 10.4773 42.3739 7.42464 40.1711C5.6628 39.0618 4.4766 37.3503 4.14517 35.4327C4.14517 32.5327 9.65746 28.8244 17.6119 26.3046C18.6062 25.9877 19.618 25.7024 20.6297 25.433C21.8159 28.8719 23.2463 32.2474 24.9035 35.512C23.2289 38.8241 21.781 42.2471 20.5774 45.7335ZM40.9171 61.2639C38.0388 63.6569 34.707 65.5586 31.0787 66.8581C29.1424 67.698 26.9096 67.7772 24.9209 67.0641C22.1474 65.6061 20.996 60.012 22.566 52.4845C22.7579 51.597 22.9672 50.7096 23.2114 49.838C27.1189 50.5987 31.0612 51.1216 35.0559 51.391C37.3585 54.3545 39.8879 57.1912 42.5917 59.8535C42.0335 60.3448 41.4753 60.8202 40.9171 61.2639ZM45.1908 57.413C43.4116 55.6698 41.6323 53.7364 39.9053 51.6604C41.5799 51.7238 43.3069 51.7555 45.0513 51.7555C46.848 51.7555 48.6099 51.7238 50.3543 51.6446C48.7494 53.6572 47.0225 55.5747 45.1908 57.413ZM67.9901 62.1672C67.8331 64.1006 66.7865 65.9072 65.1119 67.1275C62.3383 68.5854 56.4248 66.6837 50.0403 61.7077C49.3076 61.1372 48.575 60.5191 47.8249 59.8852C50.4938 57.207 52.9534 54.3703 55.1862 51.391C59.1809 51.0899 63.1581 50.5353 67.083 49.7271C67.2575 50.3768 67.4145 51.0265 67.554 51.6604C68.4088 55.0835 68.5483 58.6491 67.9901 62.1672ZM71.1649 45.1313C70.6765 45.2739 70.1881 45.4166 69.6822 45.5434C68.4611 42.0886 66.9609 38.7131 65.234 35.4327C66.9086 32.1999 68.3216 28.8719 69.5078 25.4647C70.4148 25.7024 71.287 25.956 72.1243 26.2096C80.2532 28.7451 85.9574 32.5168 85.9574 35.401C85.9574 38.5071 79.8695 42.5165 71.1649 45.1313ZM45.0513 42.7542C49.4646 42.7542 53.0406 39.5055 53.0406 35.4961C53.0406 31.4867 49.4646 28.238 45.0513 28.238C40.638 28.238 37.062 31.4867 37.062 35.4961C37.062 39.5055 40.638 42.7542 45.0513 42.7542Z" fill="#09BFF9"/>
</svg>
