<svg width="132" height="61" viewBox="0 0 132 61" fill="none" xmlns="http://www.w3.org/2000/svg">
<path fill-rule="evenodd" clip-rule="evenodd" d="M31.26 60.886L16.99 55.766V34.856L31.26 39.716V60.886ZM33.86 60.886L48.13 55.766V34.856L33.86 39.72V60.886ZM18.46 33.286L32.86 29.22L46.252 33.54L32.86 38.086L18.46 33.286ZM14.276 31.686L0 26.55V5.61L14.27 10.47L14.276 31.686ZM16.89 31.686L31.16 26.566V5.61L16.886 10.494L16.89 31.686ZM1.49 4.086L15.89 0L29.282 4.32L15.89 8.866L1.49 4.086ZM47.594 31.686L33.324 26.566V5.61L47.594 10.47V31.686ZM50.194 31.686L64.464 26.566V5.61L50.194 10.47V31.686ZM34.794 4.086L49.194 0.02L62.586 4.34L49.194 8.886L34.794 4.086Z" fill="#FF9900"/>
<path d="M91.0677 22.7863C91.0036 24.8485 92.0117 25.7617 92.0367 26.3417C92.0248 26.4597 91.9854 26.5731 91.9219 26.6724C91.8584 26.7717 91.7725 26.8541 91.6715 26.9125L90.5315 27.7283C90.384 27.834 90.2101 27.8946 90.0301 27.9031C89.9918 27.9013 89.3007 28.0697 88.2062 25.5714C87.5384 26.4236 86.6887 27.1082 85.7222 27.573C84.7557 28.0377 83.698 28.2702 82.63 28.2527C81.1801 28.3337 77.2508 27.4114 77.4529 23.135C77.3113 19.6497 80.4863 17.4847 83.77 17.6677C84.4024 17.6695 85.6937 17.7013 87.955 18.2385V16.8164C88.1946 14.4073 86.6458 12.5381 83.9642 12.8185C83.7504 12.8194 82.2364 12.773 79.8816 13.739C79.2261 14.0467 79.1424 13.9958 78.9242 13.9958C78.2643 13.9958 78.5359 12.0401 78.6624 11.7924C79.1264 11.2097 81.8561 10.1217 84.5351 10.1372C86.3263 9.97526 88.1079 10.5404 89.4949 11.7105C90.0586 12.3552 90.4888 13.11 90.7592 13.9293C91.0297 14.7487 91.135 15.6156 91.0686 16.4777L91.0677 22.7863ZM83.371 25.7353C86.2593 25.6925 87.4821 23.9171 87.7608 22.9611C87.9799 22.0461 87.9434 21.467 87.9434 20.4664C87.0822 20.2552 85.8425 20.0249 84.4202 20.023C83.0709 19.9192 80.6066 20.5356 80.7028 22.9602C80.5923 24.4889 81.6931 25.819 83.371 25.7353ZM98.5933 27.8339C97.8933 27.8995 97.5674 27.3914 97.464 26.8898L93.0288 11.899C92.9424 11.6458 92.8854 11.3845 92.8578 11.1178C92.8414 11.0078 92.8685 10.8957 92.9329 10.806C92.9974 10.7164 93.094 10.6566 93.2016 10.6398C93.223 10.6361 93.0119 10.6398 95.1832 10.6398C95.9651 10.5597 96.2199 11.1888 96.3009 11.5839L99.4822 24.406L102.435 11.5839C102.483 11.2908 102.697 10.5761 103.575 10.6516H105.104C105.297 10.6352 106.093 10.6061 106.233 11.5958L109.209 24.5817L112.493 11.5958C112.536 11.3973 112.735 10.5606 113.622 10.6516H115.379C115.454 10.6398 115.926 10.5779 115.846 11.4328C115.808 11.6012 116.15 10.4622 111.148 26.9016C111.046 27.4033 110.719 27.9113 110.019 27.8457H108.354C107.38 27.9504 107.24 26.9662 107.225 26.867L104.272 14.3818L101.352 26.8542C101.338 26.9535 101.198 27.9377 100.223 27.833H98.5933V27.8339ZM122.95 28.3465C122.426 28.3474 119.929 28.3192 117.841 27.2275C117.633 27.1375 117.456 26.9864 117.332 26.7934C117.208 26.6003 117.144 26.374 117.146 26.1432V25.1644C117.146 24.3951 117.698 24.5362 117.932 24.6282C118.826 24.9978 119.4 25.2782 120.498 25.5022C123.762 26.1878 125.198 25.2928 125.549 25.0943C126.721 24.3832 126.813 22.7562 126.017 21.9122C125.084 21.1119 124.638 21.0819 121.285 20.0003C120.872 19.8828 117.393 18.7611 117.385 15.2331C117.331 12.6619 119.616 10.1181 123.577 10.139C124.705 10.1381 127.712 10.5151 128.526 11.5612C128.646 11.7515 128.706 11.9754 128.697 12.2021V13.1226C128.697 13.5269 128.553 13.729 128.263 13.729C127.576 13.6507 126.358 12.712 123.885 12.7502C123.271 12.7175 120.332 12.8331 120.464 15.0237C120.426 16.7499 122.834 17.3973 123.109 17.4719C126.356 18.4707 127.442 18.6364 128.731 20.1651C130.257 22.1908 129.434 24.5626 129.118 25.2127C127.419 28.626 123.025 28.3483 122.95 28.3465ZM126.53 37.8936C120.293 42.6026 111.239 45.1091 103.509 45.1091C93.0778 45.1794 82.9986 41.2584 75.2522 34.117C74.6707 33.5808 75.1836 32.846 75.8908 33.2548C84.4838 38.2798 94.2129 40.9201 104.112 40.9136C111.505 40.8731 118.817 39.34 125.629 36.4023C126.678 35.9471 127.568 37.1124 126.53 37.8936ZM129.13 34.8627C128.332 33.8138 123.85 34.3729 121.844 34.6178C121.239 34.6879 121.136 34.1516 121.684 33.7556C125.253 31.1908 131.114 31.9255 131.787 32.7877C132.46 33.65 131.605 39.6536 128.264 42.5215C127.751 42.9649 127.26 42.7309 127.488 42.1482C128.24 40.2135 129.928 35.9125 129.13 34.8627Z" fill="black"/>
</svg>
