<svg width="30" height="30" viewBox="0 0 30 30" fill="none" xmlns="http://www.w3.org/2000/svg">
<path d="M15 0C6.72895 0 0 6.72895 0 15C0 23.271 6.72895 30 15 30C23.271 30 30 23.271 30 15C30 6.72895 23.271 0 15 0ZM24.9175 6.9173C26.702 9.0975 27.7826 11.8744 27.8108 14.8984C27.3884 14.8091 23.1524 13.9499 18.8893 14.4861C18.5414 13.6368 18.213 12.8897 17.7633 11.9691C22.5004 10.035 24.6474 7.28268 24.9175 6.9173ZM23.4932 5.43569C23.2628 5.76393 21.3341 8.35621 16.7782 10.0639C14.6787 6.20643 12.3517 3.03756 11.9976 2.56337C16.0606 1.58395 20.3423 2.64018 23.4932 5.43569ZM9.55288 3.4246C9.89069 3.88784 12.1802 7.06064 14.3031 10.8344C8.30994 12.4259 3.03133 12.403 2.45831 12.3954C3.28911 8.41966 5.96843 5.1153 9.55288 3.4246ZM2.1877 15.0195C2.1877 14.8885 2.1903 14.7581 2.19423 14.628C2.7548 14.6395 8.96359 14.7195 15.3619 12.8047C15.7287 13.5225 16.0791 14.2511 16.4007 14.979C11.7677 16.284 7.55831 20.031 5.48147 23.5862C3.43512 21.3148 2.1877 18.3103 2.1877 15.0195ZM7.13571 25.1272C8.47403 22.3913 12.1061 18.8597 17.2715 17.0976C19.0703 21.772 19.8142 25.6895 20.0047 26.8136C15.8851 28.5684 10.9312 28.087 7.13571 25.1272ZM22.1587 25.6406C22.0274 24.8612 21.3454 21.1106 19.6697 16.5056C23.6846 15.8629 27.212 16.9149 27.6503 17.0532C27.0792 20.6182 25.033 23.697 22.1587 25.6406Z" fill="black"/>
</svg>
