<svg width="116" height="30" viewBox="0 0 116 30" fill="none" xmlns="http://www.w3.org/2000/svg">
<path d="M16.94 24H12.494L5.058 12.742V24H0.612V5.748H5.058L12.494 17.058V5.748H16.94V24ZM22.3988 7.984C21.6188 7.984 20.9774 7.75867 20.4748 7.308C19.9894 6.84 19.7468 6.268 19.7468 5.592C19.7468 4.89867 19.9894 4.32667 20.4748 3.876C20.9774 3.408 21.6188 3.174 22.3988 3.174C23.1614 3.174 23.7854 3.408 24.2708 3.876C24.7734 4.32667 25.0248 4.89867 25.0248 5.592C25.0248 6.268 24.7734 6.84 24.2708 7.308C23.7854 7.75867 23.1614 7.984 22.3988 7.984ZM24.6088 9.492V24H20.1628V9.492H24.6088ZM33.7328 24.208C32.4674 24.208 31.3408 23.9913 30.3528 23.558C29.3648 23.1247 28.5848 22.5353 28.0128 21.79C27.4408 21.0273 27.1201 20.178 27.0508 19.242H31.4448C31.4968 19.7447 31.7308 20.152 32.1468 20.464C32.5628 20.776 33.0741 20.932 33.6808 20.932C34.2354 20.932 34.6601 20.828 34.9548 20.62C35.2668 20.3947 35.4228 20.1087 35.4228 19.762C35.4228 19.346 35.2061 19.0427 34.7728 18.852C34.3394 18.644 33.6374 18.4187 32.6668 18.176C31.6268 17.9333 30.7601 17.682 30.0668 17.422C29.3734 17.1447 28.7754 16.72 28.2728 16.148C27.7701 15.5587 27.5188 14.77 27.5188 13.782C27.5188 12.95 27.7441 12.196 28.1948 11.52C28.6628 10.8267 29.3388 10.2807 30.2228 9.882C31.1241 9.48333 32.1901 9.284 33.4208 9.284C35.2408 9.284 36.6708 9.73467 37.7108 10.636C38.7681 11.5373 39.3748 12.7333 39.5308 14.224H35.4228C35.3534 13.7213 35.1281 13.3227 34.7468 13.028C34.3828 12.7333 33.8974 12.586 33.2908 12.586C32.7708 12.586 32.3721 12.69 32.0948 12.898C31.8174 13.0887 31.6788 13.3573 31.6788 13.704C31.6788 14.12 31.8954 14.432 32.3288 14.64C32.7794 14.848 33.4728 15.056 34.4088 15.264C35.4834 15.5413 36.3588 15.8187 37.0348 16.096C37.7108 16.356 38.3001 16.7893 38.8028 17.396C39.3228 17.9853 39.5914 18.7827 39.6088 19.788C39.6088 20.6373 39.3661 21.4 38.8808 22.076C38.4128 22.7347 37.7281 23.2547 36.8268 23.636C35.9428 24.0173 34.9114 24.208 33.7328 24.208ZM51.2468 9.336C52.9108 9.336 54.2455 9.89067 55.2508 11C56.2561 12.092 56.7588 13.6 56.7588 15.524V24H52.3388V16.122C52.3388 15.1513 52.0875 14.3973 51.5848 13.86C51.0821 13.3227 50.4061 13.054 49.5568 13.054C48.7075 13.054 48.0315 13.3227 47.5288 13.86C47.0261 14.3973 46.7748 15.1513 46.7748 16.122V24H42.3288V4.76H46.7748V11.442C47.2255 10.8007 47.8408 10.2893 48.6208 9.908C49.4008 9.52667 50.2761 9.336 51.2468 9.336ZM66.4523 24.208C65.031 24.208 63.7483 23.9047 62.6043 23.298C61.4777 22.6913 60.585 21.8247 59.9263 20.698C59.285 19.5713 58.9643 18.254 58.9643 16.746C58.9643 15.2553 59.2937 13.9467 59.9523 12.82C60.611 11.676 61.5123 10.8007 62.6563 10.194C63.8003 9.58733 65.083 9.284 66.5043 9.284C67.9257 9.284 69.2083 9.58733 70.3523 10.194C71.4963 10.8007 72.3977 11.676 73.0563 12.82C73.715 13.9467 74.0443 15.2553 74.0443 16.746C74.0443 18.2367 73.7063 19.554 73.0303 20.698C72.3717 21.8247 71.4617 22.6913 70.3003 23.298C69.1563 23.9047 67.8737 24.208 66.4523 24.208ZM66.4523 20.36C67.3017 20.36 68.021 20.048 68.6103 19.424C69.217 18.8 69.5203 17.9073 69.5203 16.746C69.5203 15.5847 69.2257 14.692 68.6363 14.068C68.0643 13.444 67.3537 13.132 66.5043 13.132C65.6377 13.132 64.9183 13.444 64.3463 14.068C63.7743 14.6747 63.4883 15.5673 63.4883 16.746C63.4883 17.9073 63.7657 18.8 64.3203 19.424C64.8923 20.048 65.603 20.36 66.4523 20.36ZM85.269 24L80.849 17.916V24H76.403V4.76H80.849V15.394L85.243 9.492H90.729L84.697 16.772L90.781 24H85.269ZM100.819 13.834C100.039 13.834 99.3977 13.6087 98.895 13.158C98.4097 12.69 98.167 12.118 98.167 11.442C98.167 10.7487 98.4097 10.168 98.895 9.7C99.3977 9.232 100.039 8.998 100.819 8.998C101.582 8.998 102.206 9.232 102.691 9.7C103.194 10.168 103.445 10.7487 103.445 11.442C103.445 12.118 103.194 12.69 102.691 13.158C102.206 13.6087 101.582 13.834 100.819 13.834ZM103.393 19.892L100.507 27.354H97.673L99.181 19.892H103.393ZM105.803 29.434V29.018C107.536 27.2153 108.879 25.0833 109.833 22.622C110.786 20.1607 111.263 17.604 111.263 14.952C111.263 12.2827 110.769 9.69133 109.781 7.178C108.793 4.64733 107.389 2.48067 105.569 0.678V0.261999H109.937C111.722 1.89133 113.1 4.006 114.071 6.606C115.041 9.18867 115.527 11.9707 115.527 14.952C115.527 17.8987 115.059 20.646 114.123 23.194C113.187 25.742 111.878 27.822 110.197 29.434H105.803Z" fill="#10F4E7"/>
</svg>
